<?xml version="1.0" encoding="UTF-8" standalone="no"?>
<svg
   xml:space="preserve"
   viewBox="0 0 100 100"
   y="0"
   x="0"
   id="圖層_1"
   version="1.1"
   width="196px"
   height="196px"
   style="width:100%;height:100%;background-size:initial;background-repeat-y:initial;background-repeat-x:initial;background-position-y:initial;background-position-x:initial;background-origin:initial;background-color:initial;background-clip:initial;background-attachment:initial;animation-play-state:paused"
   sodipodi:docname="logo.svg"
   inkscape:version="1.1 (ce6663b3b7, 2021-05-25)"
   xmlns:inkscape="http://www.inkscape.org/namespaces/inkscape"
   xmlns:sodipodi="http://sodipodi.sourceforge.net/DTD/sodipodi-0.dtd"
   xmlns="http://www.w3.org/2000/svg"
   xmlns:svg="http://www.w3.org/2000/svg"><defs
     id="defs17">

</defs><sodipodi:namedview
     id="namedview15"
     pagecolor="#ffffff"
     bordercolor="#666666"
     borderopacity="1.0"
     inkscape:pageshadow="2"
     inkscape:pageopacity="0.0"
     inkscape:pagecheckerboard="0"
     showgrid="false"
     inkscape:zoom="3.8673469"
     inkscape:cx="71.754617"
     inkscape:cy="92.311346"
     inkscape:window-width="1920"
     inkscape:window-height="952"
     inkscape:window-x="0"
     inkscape:window-y="31"
     inkscape:window-maximized="1"
     inkscape:current-layer="圖層_1" /><circle
     fill="#333"
     cy="50"
     cx="50"
     style="fill:#ffffff"
     id="circle2"
     r="40" /><g
     id="g8"><path
   fill="#fff"
   d="M 68.8,46.8 C 66,38.2 57.4,32.8 48.3,33.9 c 0.1,-0.4 0.1,-0.9 -0.1,-1.3 -0.5,-1.7 -2.2,-2.7 -4,-2.3 -1.7,0.5 -2.7,2.2 -2.3,4 0.1,0.5 0.3,0.9 0.6,1.2 C 34.2,39 29.4,48 31.4,56.8 Z"
   style="fill:#333333"
   id="path4" />
<path
   fill="#fff"
   d="M 73,60.1 H 27 c -0.7,0 -1.2,0.8 -0.9,1.5 l 1.2,2.7 c 0.2,0.4 0.5,0.6 0.9,0.6 h 43.6 c 0.4,0 0.7,-0.2 0.9,-0.6 l 1.2,-2.7 C 74.2,60.9 73.7,60.1 73,60.1 Z"
   style="fill:#333333"
   id="path6" /></g><!-- generated by https://loading.io/ --></svg>
